<?xml version="1.0"?>
<svg xmlns="http://www.w3.org/2000/svg" id="outline" viewBox="0 0 512 512" width="512" height="512"><path d="M24,368H48a8.00153,8.00153,0,0,0,6.86035-3.88379l20.019-33.36511,54.47022,30.2616a55.52577,55.52577,0,0,0,66.22754-9.2754l43.84253-43.84289,49.16626,32.778L304,448.5708V488a8.00008,8.00008,0,0,0,8,8H416a8.00008,8.00008,0,0,0,8-8V472a7.99968,7.99968,0,0,0-3.35059-6.50977L368,427.88354V317.25488a39.73513,39.73513,0,0,0-11.71582-28.28418L283.31348,216,320,179.314l20.20117,20.20118a56.28548,56.28548,0,0,0,79.59863-.00049l73.85743-73.85791A8.00035,8.00035,0,0,0,496,120V83.31348a19.31389,19.31389,0,0,0-32.9707-13.65674L451.49609,81.19043,449.709,75.82812A17.29834,17.29834,0,0,0,416,81.29834V108.686l-32,32-49.88159-49.8816A31.85065,31.85065,0,0,0,336,80V42.42236A26.42138,26.42138,0,0,0,294.92188,20.438L275.5625,33.34375A7.99943,7.99943,0,0,0,272,40V56H131.88184A55.63289,55.63289,0,0,0,92.28418,72.40234L26.34277,138.34326A8.00035,8.00035,0,0,0,24,144v25.37256a24.00019,24.00019,0,0,0,40.9707,16.9707l4.83789-4.83789.30274.60742A17.889,17.889,0,0,0,104,174.11133V163.314L139.31348,128h49.373l-22.92675,22.92578a73.77951,73.77951,0,0,0-21.73316,51.44434H144v82.53027L58.57739,256.42627l-.01416-.00464-.033-.011-.001.00245A7.98353,7.98353,0,0,0,56,256H24a8.00008,8.00008,0,0,0-8,8v96A8.00008,8.00008,0,0,0,24,368ZM408,480H320V453.76611l38.665-12.88818L408,476.1167ZM352,317.25488v108.979l-33.43579,11.14526-14.64429-102.5105a8.001,8.001,0,0,0-3.48242-5.5249l-25.94238-17.29492,37.95678-44.283,32.5188,32.5188A23.83889,23.83889,0,0,1,352,317.25488Zm37.65723-159.59814,40-40A8.00035,8.00035,0,0,0,432,112V81.29834a1.29792,1.29792,0,0,1,2.5293-.41064l5.88086,17.64209a8.00044,8.00044,0,0,0,13.24707,3.12695l20.68652-20.687A3.31387,3.31387,0,0,1,480,83.31348v33.373l-71.51367,71.51465a40.286,40.286,0,0,1-56.97168,0l-4.20093-4.201L376,155.314l2.34277,2.34278A8.00122,8.00122,0,0,0,389.65723,157.65674ZM303.79785,33.75A10.42171,10.42171,0,0,1,320,42.42236V48H288V44.28174ZM288,64h32V80a16,16,0,0,1-32,0ZM136,112a8.00076,8.00076,0,0,0-5.65723,2.34326l-40,40A8.00035,8.00035,0,0,0,88,160v14.11133a1.8888,1.8888,0,0,1-3.57812.84472l-5.26661-10.53369a8.00038,8.00038,0,0,0-12.8125-2.0791L53.65625,175.02979A8,8,0,0,1,40,169.37256V147.31348l63.59863-63.59766A39.73587,39.73587,0,0,1,131.88184,72H144v40Zm79.39062,4.93848A8,8,0,0,0,208,112H160V72H272v8a31.97393,31.97393,0,0,0,52.89307,24.20709L364.686,144,336,172.68616l-10.34277-10.3429a8.00063,8.00063,0,0,0-11.31446,0L270.729,205.95709,184.37061,154.943l29.28662-29.28625A8.00107,8.00107,0,0,0,215.39062,116.93848Zm-42.416,49.85626,94.0852,55.579,34.04468,34.04474-40.02,46.68982-74.24365-49.496A60.15522,60.15522,0,0,1,160,203.46045,57.849,57.849,0,0,1,172.97461,166.79474Zm4.99121,100.13006,47.8772,31.91846-23.37451,23.37488L160,291.88354V250.21466A76.35946,76.35946,0,0,0,177.96582,266.9248Zm-29.6355,36.28467,42.66919,30.478-6.73584,6.73584a39.5259,39.5259,0,0,1-47.14355,6.603L78.78223,314.61646l-10.9231-38.23072ZM32,272H49.96582l13.38867,46.86035L43.4707,352H32Z"/></svg>
