<svg id="Capa_1" enable-background="new 0 0 512 512" height="512" viewBox="0 0 512 512" width="512" xmlns="http://www.w3.org/2000/svg"><g><path d="m408.084 278.01-2.327-9.307c-6.223-24.891-9.37-50.452-9.37-76.109v-22.299l-227.714-139.86c-32.326 25.698-53.06 65.348-53.06 109.836v52.323c0 25.657-3.146 51.218-9.369 76.109l-2.327 9.307c-2.816 11.265 2.57 22.974 12.955 28.167l2.047 1.024c8.406 4.203 14.623 11.787 17.096 20.853l20.888 76.59h99.097v-.01.01h99.097l20.888-76.59c2.473-9.067 8.691-16.651 17.096-20.853l2.047-1.024c10.386-5.192 15.772-16.902 12.956-28.167z" fill="#ffa95f"/><path d="m330.323 363.84-2.735-.965c-13.207-4.661-22.039-17.144-22.039-31.149v-11.779h-99.097v11.779c0 14.005-8.832 26.488-22.039 31.149l-2.735.965v49.063h148.645z" fill="#f6d190"/><path d="m429.419 512c9.121 0 16.516-7.395 16.516-16.516v-55.783c0-21.008-13.247-39.732-33.057-46.723l-85.291-30.103c-.695-.245-1.324-.597-1.994-.885l-36.561 42.655h-66.065l-36.561-42.655c-.67.287-1.299.64-1.994.885l-82.349 29.064c-19.809 6.992-27.063 26.755-27.063 47.762v55.783l7.581 16.516h41.29l9.129-9.5 7.387 9.5h231.226l8.887-9.5 7.629 9.5z" fill="#95d6a4"/><path d="m206.452 319.947c15.181 6.638 31.919 10.376 49.548 10.376s34.367-3.738 49.548-10.376v-30.914h-99.097v30.914z" fill="#ecbd83"/><path d="m367.484 173.419h-4.129v-90.838h-135.619c-21.664 49.33-54.317 82.581-54.317 82.581l-6.419 49.548c4.23 55.419 32.497 97.457 89 97.457 5.681 0 11.257 1.198 16.698.348 48.671-7.609 86.435-47.958 90.24-97.805h4.546c11.402 0 20.645-9.243 20.645-20.645 0-11.403-9.243-20.646-20.645-20.646z" fill="#ffe09f"/><path d="m181.677 206.452v-50.536c-5.058 5.987-8.258 9.246-8.258 9.246h-24.774v8.258h-4.129c-11.402 0-20.645 9.243-20.645 20.645s9.243 20.645 20.645 20.645h4.546c4.23 55.419 50.435 99.097 106.938 99.097 5.649 0 11.287-.451 16.698-1.292-51.454-7.941-91.021-52.386-91.021-106.063z" fill="#f6d190"/><path d="m256.042 0c-.028 0-.042 0-.042 0s-.014 0-.042 0c-32.988-.001-63.317 11.376-87.285 30.435 32.591 43.618 106.042 120.648 227.715 139.861v-30.025c-.001-77.471-62.876-140.272-140.346-140.271z" fill="#ffc269"/><path d="m256 256c-13.137 0-25.452-3.274-35.629-9.46-3.895-2.371-5.137-7.452-2.766-11.347s7.452-5.145 11.347-2.766c14.968 9.097 39.129 9.097 54.097 0 3.895-2.371 8.984-1.121 11.347 2.766 2.371 3.895 1.129 8.976-2.766 11.347-10.178 6.186-22.493 9.46-35.63 9.46z" fill="#ecbd83"/><g fill="#f5ebcd"><path d="m239.484 404.645v66.065c0 9.121 7.395 16.516 16.516 16.516s16.516-7.395 16.516-16.516v-66.065z"/><path d="m148.645 156.903h24.774v16.516h-24.774c-4.561 0-8.258-3.697-8.258-8.258 0-4.561 3.697-8.258 8.258-8.258z"/><path d="m363.355 173.419h-24.774v-16.516h24.774c4.561 0 8.258 3.697 8.258 8.258 0 4.561-3.697 8.258-8.258 8.258z"/></g><path d="m305.548 132.129c-19.939 0-36.618 14.21-40.456 33.032h-18.185c-3.837-18.823-20.517-33.032-40.456-33.032-22.766 0-41.29 18.524-41.29 41.29s18.524 41.29 41.29 41.29c19.939 0 36.618-14.21 40.456-33.032h18.185c3.837 18.823 20.517 33.032 40.456 33.032 22.766 0 41.29-18.524 41.29-41.29s-18.523-41.29-41.29-41.29z" fill="#faf5dc"/><circle cx="206.452" cy="173.419" fill="#f6d190" r="24.774"/><circle cx="305.548" cy="173.419" fill="#f6d190" r="24.774"/><path d="m206.452 182.395c-4.565 0-8.258-3.694-8.258-8.258v-8.258c0-4.56 3.694-8.258 8.258-8.258s8.258 3.698 8.258 8.258v8.258c0 4.565-3.694 8.258-8.258 8.258z" fill="#c38c66"/><path d="m305.548 182.395c-4.565 0-8.258-3.694-8.258-8.258v-8.258c0-4.56 3.694-8.258 8.258-8.258s8.258 3.698 8.258 8.258v8.258c0 4.565-3.693 8.258-8.258 8.258z" fill="#c38c66"/><path d="m321.652 355.044 19.72 10.909c3.779 2.091 5.263 6.723 3.516 10.673-7.581 17.132-16.92 32.403-24.062 42.359-7.817 10.896-22.785 13.687-33.943 6.248l-30.883-20.588s30.903-17.746 55.201-47.469c2.556-3.126 6.917-4.087 10.451-2.132z" fill="#faf5dc"/><path d="m190.348 355.044-19.72 10.909c-3.779 2.091-5.263 6.723-3.516 10.673 7.581 17.132 16.92 32.403 24.062 42.359 7.817 10.896 22.785 13.687 33.943 6.248l30.883-20.588s-30.903-17.746-55.201-47.469c-2.556-3.126-6.917-4.087-10.451-2.132z" fill="#faf5dc"/><path d="m123.871 512h16.516v-41.29c0-4.561-3.697-8.258-8.258-8.258-4.561 0-8.258 3.697-8.258 8.258z" fill="#78c2a4"/><path d="m371.613 512h16.516v-41.29c0-4.561-3.697-8.258-8.258-8.258-4.561 0-8.258 3.697-8.258 8.258z" fill="#78c2a4"/><g><path d="m102.064 391.939-2.942 1.038c-19.81 6.991-33.058 25.716-33.058 46.723v55.783c0 9.121 7.395 16.516 16.516 16.516v-80.674c.001-15.732 7.432-30.183 19.484-39.386z" fill="#78c2a4"/></g></g></svg>