<svg id="Layer_2" height="512" viewBox="0 0 512 512" width="512" xmlns="http://www.w3.org/2000/svg" data-name="Layer 2"><path d="m216 296h-72v-189.819c0-58.642 50.144-98.181 112-98.181s112 39.539 112 98.181v189.819h-64" fill="#d88205"/><path d="m8 512v-16l72.858-136.144a24 24 0 0 1 17.759-7.856h117.383v-80l88-8v88h116.343a24 24 0 0 1 18.864 9.163l64.793 126.837v24" fill="#dd8910"/><path d="m104 512h-16v-24a8 8 0 0 1 3.562-6.656l20.438-13.625v-27.719h16v32a8 8 0 0 1 -3.563 6.656l-20.437 13.625z" fill="#c17208"/><path d="m424 512h-16v-19.719l-20.437-13.625a8 8 0 0 1 -3.563-6.656v-32h16v27.719l20.438 13.625a8 8 0 0 1 3.562 6.656z" fill="#c17208"/><path d="m264 456c60.337-1.764 113.083-44.343 128-104h-88v-88l-88 8v80h-88c15.693 62.53 72.826 105.847 136 104z" fill="#fdcaa7"/><path d="m304 264-88 8v45.854c38.3 7.774 70.027-7.247 88-19.167z" fill="#eaa475"/><path d="m200 96h-16c0-22.078 9.294-41.492 26.878-56.146a90.808 90.808 0 0 1 26.592-15.443l5.06 15.179-2.53-7.59 2.551 7.583c-1.738.589-42.551 14.924-42.551 56.417z" fill="#bf6f06"/><path d="m320.155 97.569c-6.9-34.483-26.489-41.914-26.685-41.979l5.06-15.179c1.16.387 28.506 9.975 37.315 54.021z" fill="#bf6f06"/><path d="m256 64h16v32h-16z" fill="#bf6f06"/><path d="m168 224h16v72h-16z" fill="#bf6f06"/><path d="m336 96v128l-43.233 57.048a16 16 0 0 1 -13.2 6.952h-39.877a16 16 0 0 1 -12.494-6l-51.196-58v-128z" fill="#fdcaa7"/><path d="m176 96v128l51.2 58a16 16 0 0 0 12.494 6h32.306l-64-64v-128z" fill="#f9f2ed" opacity=".3"/><path d="m260 256c-19.851 0-36-14.355-36-32h16c0 8.822 8.972 16 20 16s20-7.178 20-16h16c0 17.645-16.149 32-36 32z" fill="#f28775"/><g fill="#8f4c2e"><path d="m234.343 149.657-5.656-5.657h-28.687v-16h32a8 8 0 0 1 5.657 2.343l8 8z"/><path d="m277.657 149.657-11.313-11.313 8-8a8 8 0 0 1 5.656-2.344h32v16h-28.687z"/><path d="m216 152h16v16h-16z"/><path d="m280 152h16v16h-16z"/><path d="m280 216h-32a8 8 0 0 1 -7.761-9.94l7.761-31.045v-7.015h16v8a8 8 0 0 1 -.239 1.94l-5.515 22.06h21.754z"/></g><circle cx="208" cy="192" fill="#f28775" r="8"/><circle cx="304" cy="192" fill="#f28775" r="8"/><path d="m180.073 352h-81.456a24 24 0 0 0 -17.759 7.856l-72.858 136.144v16h20.147c97.086-66.291 139.696-136.7 151.926-160z" fill="#f9f2ed" opacity=".3"/></svg>